{"title":"A Million Ways To Die In The West 2014 HDRIP XVID AC3 ACAB","uid":10931142,"size":920145258,"categoryP":"video","categoryS":"movies","magnet":"?xt=urn:btih:32076b4d6be781616f87455ea6be2b4bdc4934ed&amp;dn=A+Million+Ways+To+Die+In+The+West+2014+HDRIP+XVID+AC3+ACAB&amp;tr=udp%3A%2F%2Ftracker.openbittorrent.com%3A80&amp;tr=udp%3A%2F%2Fopen.demonii.com%3A1337&amp;tr=udp%3A%2F%2Ftracker.coppersurfer.tk%3A6969&amp;tr=udp%3A%2F%2Fexodus.desync.com%3A6969","seeders":1,"leechers":0,"uploader":"xxxlavalxxx","files":-1,"time":1409404647,"description":"[IMG]http://i.imgur.com/kwNTpKt.jpg[/IMG]\n\n &lt;a href=&quot;\nhttp://www.imdb.com/title/tt2557490/&quot; rel=&quot;nofollow&quot; target=&quot;_NEW&quot;&gt;\nhttp://www.imdb.com/title/tt2557490/&lt;/a&gt;\n\n\nAs a cowardly farmer begins to fall for the mysterious new woman in town, he must put his new-found courage to the test when her husband, a notorious gun-slinger, announces his arrival.\n\nDirector: Seth MacFarlane\nWriters: Seth MacFarlane, Alec Sulkin\nStars: Seth MacFarlane, Charlize Theron, Liam Neeson\nGenres: Comedy, Western\nCountry: USA\nLanguage: English\n\n\n\nFormat                                   : AVI\nFormat/Info                              : Audio Video Interleave\nFile size                                : 864 MiB\nDuration                                 : 1h 56mn\nOverall bit rate                         : 1 039 Kbps\n\nVideo\nID                                       : 0\nFormat                                   : MPEG-4 Visual\nFormat profile                           : Advanced Simple@L5\nFormat settings, BVOP                    : 2\nFormat settings, QPel                    : No\nFormat settings, GMC                     : No warppoints\nFormat settings, Matrix                  : Default (H.263)\nMuxing mode                              : Packed bitstream\nCodec ID                                 : XVID\nCodec ID/Hint                            : XviD\nDuration                                 : 1h 56mn\nBit rate                                 : 648 Kbps\nWidth                                    : 720 pixels\nHeight                                   : 304 pixels\nDisplay aspect ratio                     : 2.35:1\nFrame rate                               : 23.976 fps\nColor space                              : YUV\nChroma subsampling                       : 4:2:0\nBit depth                                : 8 bits\nScan type                                : Progressive\nCompression mode                         : Lossy\nBits/(Pixel*Frame)                       : 0.124\nStream size                              : 539 MiB (62%)\nWriting library                          : XviD 1.2.1 (UTC 2008-12-04)\n\nAudio\nID                                       : 1\nFormat                                   : AC-3\nFormat/Info                              : Audio Coding 3\nMode extension                           : CM (complete main)\nFormat settings, Endianness              : Big\nCodec ID                                 : 2000\nDuration                                 : 1h 55mn\nBit rate mode                            : Constant\nBit rate                                 : 384 Kbps\nChannel(s)                               : 6 channels\nChannel positions                        : Front: L C R, Side: L R, LFE\nSampling rate                            : 48.0 KHz\nBit depth                                : 16 bits\nCompression mode                         : Lossy\nStream size                              : 318 MiB (37%)\nAlignment                                : Aligned on interleaves\nInterleave, duration                     : 64 ms (1.54 video frames)\nInterleave, preload duration             : 192 ms\nTitle                                    : English\n\n\nscreens\n &lt;a href=&quot;\nhttp://i.imgur.com/fbNuDhu.png&quot; rel=&quot;nofollow&quot; target=&quot;_NEW&quot;&gt;\nhttp://i.imgur.com/fbNuDhu.png&lt;/a&gt; &lt;a href=&quot;\nhttp://i.imgur.com/DrZHsMg.png&quot; rel=&quot;nofollow&quot; target=&quot;_NEW&quot;&gt;\nhttp://i.imgur.com/DrZHsMg.png&lt;/a&gt; &lt;a href=&quot;\nhttp://i.imgur.com/RWub9ko.png&quot; rel=&quot;nofollow&quot; target=&quot;_NEW&quot;&gt;\nhttp://i.imgur.com/RWub9ko.png&lt;/a&gt; &lt;a href=&quot;\nhttp://i.imgur.com/onMRCXm.png&quot; rel=&quot;nofollow&quot; target=&quot;_NEW&quot;&gt;\nhttp://i.imgur.com/onMRCXm.png&lt;/a&gt;","torrent":{"xt":"urn:btih:32076b4d6be781616f87455ea6be2b4bdc4934ed","amp;dn":"A+Million+Ways+To+Die+In+The+West+2014+HDRIP+XVID+AC3+ACAB","amp;tr":["udp%3A%2F%2Ftracker.openbittorrent.com%3A80","udp%3A%2F%2Fopen.demonii.com%3A1337","udp%3A%2F%2Ftracker.coppersurfer.tk%3A6969","udp%3A%2F%2Fexodus.desync.com%3A6969"],"infoHash":"32076b4d6be781616f87455ea6be2b4bdc4934ed","infoHashBuffer":{"type":"Buffer","data":[50,7,107,77,107,231,129,97,111,135,69,94,166,190,43,75,220,73,52,237]},"announce":[],"urlList":[]}}